<svg xmlns="http://www.w3.org/2000/svg" viewBox="0 0 64 64" id="analysis"><path fill="#ecf0f1" d="M17.5 48.5h4v11h-4zm17-33h4v44h-4zm17 20h4v24h-4z"></path><path fill="#2c3e50" d="M13.5 30.5h4v29h-4zm17 3h4v26h-4zm17-13h4v39h-4z"></path><path fill="#e74c3c" d="M9.5 39.5h4v20h-4zm17-16h4v36h-4zm17 20h4v16h-4z"></path><path fill="#212e3a" d="M13.5 60h-4a.5.5 0 0 1-.5-.5v-20a.5.5 0 0 1 .5-.5h4a.5.5 0 0 1 .5.5v20a.5.5 0 0 1-.5.5zM10 59h3V40h-3v19z"></path><path fill="#212e3a" d="M17.5 60h-4a.5.5 0 0 1-.5-.5v-29a.5.5 0 0 1 .5-.5h4a.5.5 0 0 1 .5.5v29a.5.5 0 0 1-.5.5zM14 59h3V31h-3v28z"></path><path fill="#212e3a" d="M21.5 60h-4a.5.5 0 0 1-.5-.5v-11a.5.5 0 0 1 .5-.5h4a.5.5 0 0 1 .5.5v11a.5.5 0 0 1-.5.5zM18 59h3V49h-3v10zm12.5 1h-4a.5.5 0 0 1-.5-.5v-36a.5.5 0 0 1 .5-.5h4a.5.5 0 0 1 .5.5v36a.5.5 0 0 1-.5.5zM27 59h3V24h-3v35z"></path><path fill="#212e3a" d="M34.5 60h-4a.5.5 0 0 1-.5-.5v-26a.5.5 0 0 1 .5-.5h4a.5.5 0 0 1 .5.5v26a.5.5 0 0 1-.5.5zM31 59h3V34h-3v25z"></path><path fill="#212e3a" d="M38.5 60h-4a.5.5 0 0 1-.5-.5v-44a.5.5 0 0 1 .5-.5h4a.5.5 0 0 1 .5.5v44a.5.5 0 0 1-.5.5zM35 59h3V16h-3v43zm12.5 1h-4a.5.5 0 0 1-.5-.5v-16a.5.5 0 0 1 .5-.5h4a.5.5 0 0 1 .5.5v16a.5.5 0 0 1-.5.5zM44 59h3V44h-3v15z"></path><path fill="#212e3a" d="M51.5 60h-4a.5.5 0 0 1-.5-.5v-39a.5.5 0 0 1 .5-.5h4a.5.5 0 0 1 .5.5v39a.5.5 0 0 1-.5.5zM48 59h3V21h-3v38z"></path><path fill="#212e3a" d="M55.5 60h-4a.5.5 0 0 1-.5-.5v-24a.5.5 0 0 1 .5-.5h4a.5.5 0 0 1 .5.5v24a.5.5 0 0 1-.5.5zM52 59h3V36h-3v23z"></path><path fill="#212e3a" d="M59.5 60h-55a.5.5 0 0 1 0-1h55a.5.5 0 0 1 0 1z"></path></svg>